<?xml version="1.0" encoding="UTF-8" standalone="no"?>
<svg
   xmlns:dc="http://purl.org/dc/elements/1.1/"
   xmlns:cc="http://creativecommons.org/ns#"
   xmlns:rdf="http://www.w3.org/1999/02/22-rdf-syntax-ns#"
   xmlns:svg="http://www.w3.org/2000/svg"
   xmlns="http://www.w3.org/2000/svg"
   xmlns:sodipodi="http://sodipodi.sourceforge.net/DTD/sodipodi-0.dtd"
   xmlns:inkscape="http://www.inkscape.org/namespaces/inkscape"
   inkscape:export-ydpi="768.00006"
   inkscape:export-xdpi="768.00006"
   inkscape:export-filename="C:\Users\Elliot\Pictures\beatbreakLogoBig.png"
   sodipodi:docname="beatbreakLogoBig.svg"
   inkscape:version="1.0 (4035a4fb49, 2020-05-01)"
   id="svg8"
   version="1.1"
   viewBox="0 0 55.5625 23.8125"
   height="23.8125mm"
   width="55.5625mm">
  <defs
     id="defs2" />
  <sodipodi:namedview
     inkscape:window-maximized="1"
     inkscape:window-y="-8"
     inkscape:window-x="-8"
     inkscape:window-height="1017"
     inkscape:window-width="1920"
     showgrid="false"
     inkscape:document-rotation="0"
     inkscape:current-layer="layer1"
     inkscape:document-units="mm"
     inkscape:cy="57.787551"
     inkscape:cx="104.85472"
     inkscape:zoom="5.6568543"
     inkscape:pageshadow="2"
     inkscape:pageopacity="0.0"
     borderopacity="1.0"
     bordercolor="#666666"
     pagecolor="#ffffff"
     id="base" />
  <metadata
     id="metadata5">
    <rdf:RDF>
      <cc:Work
         rdf:about="">
        <dc:format>image/svg+xml</dc:format>
        <dc:type
           rdf:resource="http://purl.org/dc/dcmitype/StillImage" />
        <dc:title></dc:title>
      </cc:Work>
    </rdf:RDF>
  </metadata>
  <g
     transform="translate(-5.2916665,-5.2916665)"
     id="layer1"
     inkscape:groupmode="layer"
     inkscape:label="Layer 1">
    <rect
       y="5.2916665"
       x="5.2916665"
       height="23.8125"
       width="55.5625"
       id="rect870"
       style="fill:#070707;fill-opacity:1;stroke:none;stroke-width:1.97375;stroke-linecap:square;stroke-opacity:1" />
    <path
       d="m 26.722916,14.022917 v 2.11615 2.117699 2.11615 h 2.11615 2.1177 2.11615 v -2.11615 l -2.11615,-2.117699 h -2.1177 l 2.1177,2.117699 h -2.1177 v -2.117699 -2.11615 z m 2.11615,0 2.1177,2.11615 h 2.11615 l -2.11615,-2.11615 z"
       style="fill:#ffbf00;fill-opacity:1;stroke:none;stroke-width:0.557319;stroke-linecap:square;stroke-opacity:1"
       id="rect872" />
    <path
       d="m 33.072916,14.022917 v 2.11615 2.117699 2.11615 h 2.11615 2.1177 2.116151 v -2.11615 h -2.11615 -2.1177 l 2.1177,-2.117699 h 2.11615 l -2.116151,-2.11615 h -2.1177 z"
       style="fill:#ffbf00;fill-opacity:1;stroke:none;stroke-width:0.557319;stroke-linecap:square;stroke-opacity:1"
       id="rect898" />
    <path
       d="m 39.422917,14.022917 v 2.11615 2.117699 2.11615 h 2.116149 v -2.11615 h 2.1177 l -2.1177,-2.117699 h 2.1177 v 2.117699 2.11615 h 2.116151 v -2.11615 -2.117699 l -2.116151,-2.11615 h -2.1177 z"
       style="fill:#ffbf00;fill-opacity:1;stroke:none;stroke-width:0.557319;stroke-linecap:square;stroke-opacity:1"
       id="rect916" />
    <path
       d="m 45.772917,14.022917 v 2.11615 h 2.11615 v 2.117699 2.11615 h 2.117699 v -2.11615 -2.117699 h 2.11615 l -2.11615,-2.11615 h -2.117699 z"
       style="fill:#ffbf00;fill-opacity:1;stroke:none;stroke-width:0.557319;stroke-linecap:square;stroke-opacity:1"
       id="rect932" />
    <path
       d="m 26.722916,20.372916 v 2.116149 2.1177 2.116152 h 2.11615 2.1177 2.11615 v -2.116152 l -2.11615,-2.1177 h -2.1177 l 2.1177,2.1177 h -2.1177 v -2.1177 -2.116149 z m 2.11615,0 2.1177,2.116149 h 2.11615 l -2.11615,-2.116149 z"
       style="fill:#ff0075;fill-opacity:1;stroke:none;stroke-width:0.557319;stroke-linecap:square;stroke-opacity:1"
       id="rect948" />
    <path
       d="m 33.072916,20.372916 v 2.116149 2.1177 2.116152 h 2.11615 v -2.116152 h 2.1177 l -2.1177,-2.1177 h 2.1177 v 2.1177 h 2.116151 v -2.1177 l -2.11615,-2.116149 h -2.1177 z m 4.233851,4.233849 v 2.116152 h 2.11615 z"
       style="fill:#ff0075;fill-opacity:1;stroke:none;stroke-width:0.557319;stroke-linecap:square;stroke-opacity:1"
       id="rect964" />
    <path
       d="m 39.422917,20.372916 v 2.116149 2.1177 2.116152 h 2.116149 2.1177 2.11615 v -2.116152 h -2.11615 -2.1177 l 2.1177,-2.1177 h 2.116151 l -2.11615,-2.116149 h -2.1177 z"
       style="fill:#ff0075;fill-opacity:1;stroke:none;stroke-width:0.557319;stroke-linecap:square;stroke-opacity:1"
       id="rect980" />
    <path
       d="m 45.772917,20.372916 v 2.116149 2.1177 2.116152 h 2.11615 v -2.116152 h 2.117699 l -2.117699,-2.1177 h 2.117699 v 2.1177 2.116152 h 2.11615 v -2.116152 -2.1177 l -2.11615,-2.116149 h -2.117699 z"
       style="fill:#ff0075;fill-opacity:1;stroke:none;stroke-width:0.557319;stroke-linecap:square;stroke-opacity:1"
       id="rect996" />
    <path
       d="m 52.122916,20.372916 v 2.116149 2.1177 2.116152 h 2.11615 v -2.116152 h 2.1177 v -2.1177 h -2.1177 z m 4.233851,2.116149 h 2.116149 l -2.116149,-2.116149 z m 0,2.1177 v 2.116152 h 2.116149 z"
       style="fill:#ff0075;fill-opacity:1;stroke:none;stroke-width:0.557319;stroke-linecap:square;stroke-opacity:1"
       id="rect1014" />
    <path
       id="path1172"
       style="fill:#ffbf00;fill-opacity:1;stroke:none;stroke-width:1.18225;stroke-linecap:square;stroke-opacity:1"
       d="m 22.754167,14.02292 h 3.175 v 6.349996 h -3.175 z" />
    <path
       id="path1174"
       style="fill:#ff0075;fill-opacity:1;stroke:none;stroke-width:1.18225;stroke-linecap:square;stroke-opacity:1"
       d="m 22.754167,20.372916 h 3.175 v 6.350004 h -3.175 z" />
    <path
       d="m 19.579171,14.02292 h 2.38125 v 6.349996 h -2.38125 z"
       style="fill:#ffbf00;fill-opacity:1;stroke:none;stroke-width:1.02386;stroke-linecap:square;stroke-opacity:1"
       id="path1176" />
    <path
       d="m 19.579171,20.372916 h 2.38125 v 6.350004 h -2.38125 z"
       style="fill:#ff0075;fill-opacity:1;stroke:none;stroke-width:1.02386;stroke-linecap:square;stroke-opacity:1"
       id="path1178" />
    <path
       id="path1180"
       style="fill:#ffbf00;fill-opacity:1;stroke:none;stroke-width:0.835978;stroke-linecap:square;stroke-opacity:1"
       d="m 17.197924,14.02292 h 1.5875 v 6.349996 h -1.5875 z" />
    <path
       id="path1182"
       style="fill:#ff0075;fill-opacity:1;stroke:none;stroke-width:0.835978;stroke-linecap:square;stroke-opacity:1"
       d="m 17.197924,20.372916 h 1.5875 v 6.350004 h -1.5875 z" />
    <path
       d="m 15.610426,14.02292 h 0.79375 v 6.349996 h -0.79375 z"
       style="fill:#ffbf00;fill-opacity:1;stroke:none;stroke-width:0.591126;stroke-linecap:square;stroke-opacity:1"
       id="path1184" />
    <path
       d="m 15.610426,20.372916 h 0.79375 v 6.350004 h -0.79375 z"
       style="fill:#ff0075;fill-opacity:1;stroke:none;stroke-width:0.591126;stroke-linecap:square;stroke-opacity:1"
       id="path1186" />
    <path
       id="path1188"
       style="fill:#ffbf00;fill-opacity:1;stroke:none;stroke-width:0.591126;stroke-linecap:square;stroke-opacity:1"
       d="m 14.022928,14.02292 h 0.79375 v 6.349996 h -0.79375 z" />
    <path
       id="path1190"
       style="fill:#ff0075;fill-opacity:1;stroke:none;stroke-width:0.591126;stroke-linecap:square;stroke-opacity:1"
       d="m 14.022928,20.372916 h 0.79375 v 6.350004 h -0.79375 z" />
    <path
       sodipodi:nodetypes="cccccccccccc"
       d="M 7.6729165,7.6729165 14.022916,18.785418 h -4.7625 l 3.175001,4.7625 -4.7625005,3.174999 h 6.3499995 c -1e-6,-7.014018 5.685982,-12.700001 12.7,-12.7 V 7.6729165 l -3.174999,4.7625005 -4.7625,-3.175 v 4.7625 z"
       style="fill:#ffffff;fill-opacity:1;stroke:none;stroke-width:1.21117;stroke-linecap:square;stroke-opacity:1"
       id="rect839" />
  </g>
</svg>
